<svg width="20" height="20" viewBox="0 0 20 20" fill="none" xmlns="http://www.w3.org/2000/svg">
<path d="M6.00555 20C5.45504 20 4.98377 19.8042 4.59174 19.4125C4.19971 19.0208 4.0037 18.55 4.0037 18C4.0037 17.45 4.19971 16.9792 4.59174 16.5875C4.98377 16.1958 5.45504 16 6.00555 16C6.55606 16 7.02733 16.1958 7.41935 16.5875C7.81138 16.9792 8.0074 17.45 8.0074 18C8.0074 18.55 7.81138 19.0208 7.41935 19.4125C7.02733 19.8042 6.55606 20 6.00555 20ZM16.0148 20C15.4643 20 14.993 19.8042 14.601 19.4125C14.209 19.0208 14.0129 18.55 14.0129 18C14.0129 17.45 14.209 16.9792 14.601 16.5875C14.993 16.1958 15.4643 16 16.0148 16C16.5653 16 17.0366 16.1958 17.4286 16.5875C17.8206 16.9792 18.0166 17.45 18.0166 18C18.0166 18.55 17.8206 19.0208 17.4286 19.4125C17.0366 19.8042 16.5653 20 16.0148 20ZM5.15476 4L7.55698 9H14.5635L17.316 4H5.15476ZM4.20388 2H18.9675C19.3512 2 19.6431 2.17083 19.8433 2.5125C20.0435 2.85417 20.0519 3.2 19.8684 3.55L16.3151 9.95C16.1316 10.2833 15.8855 10.5417 15.5769 10.725C15.2683 10.9083 14.9305 11 14.5635 11H7.10657L6.00555 13H18.0166V15H6.00555C5.25486 15 4.68766 14.6708 4.30398 14.0125C3.92029 13.3542 3.90361 12.7 4.25393 12.05L5.60518 9.6L2.00185 2H0V0H3.25301L4.20388 2Z" fill="white"/>
</svg>
