<svg width="133" height="32" viewBox="0 0 133 32" fill="none" xmlns="http://www.w3.org/2000/svg">
<g clip-path="url(#clip0_2_809)">
<path d="M7.52466 6.82273C7.52466 6.82273 13.0661 -1.3684 20.7877 0.199431C20.7877 0.199431 23.9063 0.976492 27.4449 1.48387C27.4403 1.47472 20.1388 14.5522 7.52466 6.82273Z" fill="#4C286A"/>
<path d="M29.8679 13.4598C29.8118 15.8047 28.1779 17.8479 25.6663 19.1369C25.6523 19.1461 25.6383 19.1506 25.6242 19.1552C23.8082 20.0328 21.572 20.5448 19.1538 20.5722C19.1117 20.5768 19.0697 20.5722 19.0277 20.5768H19.0137C18.2808 20.5768 17.5338 20.5402 16.7682 20.4488C9.93825 19.6352 4.8823 15.2608 5.4752 10.6669C5.66662 9.1951 6.41356 7.87869 7.56669 6.79993C6.99244 7.75526 6.73101 8.80202 6.81972 9.87161C6.93644 11.1241 7.54801 12.2576 8.51902 13.1901C10.4704 15.0734 13.8691 16.1521 17.6178 15.8367C23.0799 15.3705 27.2535 12.1068 27.1695 8.4592C28.8921 9.7939 29.9145 11.5537 29.8679 13.4598Z" fill="#4C286A"/>
<path d="M40.1153 21.3171C39.7651 25.1796 36.8285 28.393 32.5428 30.2625C32.5244 30.2762 32.4962 30.2853 32.4777 30.2853C29.3777 31.5515 25.6289 32.1641 21.6374 31.9536C21.5721 31.9536 21.5067 31.9447 21.4367 31.94H21.418C20.2042 31.867 18.9764 31.7206 17.7299 31.492C6.54433 29.4488 -1.30801 21.6965 0.181227 14.1819C0.662078 11.7684 2.04394 9.6795 4.07005 8.02026C3.01964 9.53325 2.45943 11.2382 2.49678 13.0117C2.5528 15.0961 3.43047 17.0296 4.92904 18.666C7.94018 21.9753 13.4303 24.1145 19.6487 23.9683C28.7148 23.7626 35.9787 18.8077 36.2404 12.774C38.9153 15.1601 40.4 18.1723 40.1153 21.3171Z" fill="#7A1DC5"/>
<path d="M50.2284 24.0952V7.96826H61.3272V10.7794H53.711V14.6222H60.7559V17.4334H53.711V21.284H61.3593V24.0952H50.2284Z" fill="#4C286A"/>
<path d="M71.7279 14.701V17.3626H64.2164V14.701H71.7279Z" fill="#4C286A"/>
<path d="M88.4884 7.96826V24.0952H85.4805L78.3147 13.945H78.1941V24.0952H74.7118V7.96826H77.7677L84.8775 18.1106H85.0221V7.96826H88.4884Z" fill="#4C286A"/>
<path d="M91.3657 24.0952V7.96826H102.464V10.7794H94.8479V14.6222H101.893V17.4334H94.8479V21.284H102.497V24.0952H91.3657Z" fill="#4C286A"/>
<path d="M114.168 12.6063C114.104 11.9711 113.828 11.4777 113.34 11.1259C112.852 10.7742 112.189 10.5983 111.353 10.5983C110.785 10.5983 110.305 10.6771 109.914 10.8346C109.522 10.9868 109.222 11.1995 109.013 11.4724C108.809 11.7454 108.707 12.0551 108.707 12.4016C108.697 12.6903 108.758 12.9423 108.892 13.1575C109.031 13.3728 109.222 13.5592 109.463 13.7167C109.705 13.8689 109.983 14.0028 110.3 14.1182C110.616 14.2285 110.954 14.323 111.313 14.4017L112.793 14.7482C113.511 14.9057 114.171 15.1157 114.771 15.3782C115.372 15.6407 115.892 15.9635 116.332 16.3467C116.771 16.73 117.112 17.1814 117.353 17.7011C117.6 18.2208 117.725 18.8167 117.731 19.4887C117.725 20.4756 117.468 21.3313 116.959 22.0557C116.455 22.7749 115.726 23.334 114.771 23.733C113.822 24.1267 112.677 24.3236 111.337 24.3236C110.007 24.3236 108.849 24.1241 107.863 23.7251C106.881 23.3262 106.115 22.7355 105.563 21.9534C105.016 21.1659 104.729 20.1921 104.702 19.0319H108.072C108.109 19.5726 108.268 20.0241 108.546 20.3863C108.83 20.7433 109.208 21.0137 109.68 21.1974C110.158 21.3759 110.696 21.4651 111.297 21.4651C111.887 21.4651 112.399 21.3811 112.833 21.2132C113.273 21.0452 113.613 20.8116 113.854 20.5123C114.096 20.2131 114.216 19.8693 114.216 19.4808C114.216 19.1185 114.106 18.8141 113.887 18.5673C113.672 18.3206 113.356 18.1106 112.937 17.9374C112.525 17.7642 112.018 17.6067 111.417 17.4649L109.624 17.0239C108.235 16.6932 107.139 16.1761 106.335 15.4727C105.53 14.7692 105.131 13.8216 105.136 12.63C105.131 11.6535 105.396 10.8005 105.932 10.0708C106.474 9.34107 107.217 8.77148 108.16 8.36199C109.104 7.95253 110.176 7.7478 111.377 7.7478C112.6 7.7478 113.667 7.95253 114.578 8.36199C115.495 8.77148 116.208 9.34107 116.717 10.0708C117.227 10.8005 117.49 11.6457 117.506 12.6063H114.168Z" fill="#4C286A"/>
<path d="M119.446 10.7794V7.96826H132.973V10.7794H127.931V24.0952H124.489V10.7794H119.446Z" fill="#4C286A"/>
</g>
<defs>
<clipPath id="clip0_2_809">
<rect width="133" height="32" fill="white"/>
</clipPath>
</defs>
</svg>
