<svg width="21" height="18" viewBox="0 0 21 18" fill="none" xmlns="http://www.w3.org/2000/svg">
<path d="M10.4771 17.741C10.1795 17.9025 9.82046 17.9025 9.52291 17.741L3.52291 14.4839C3.20067 14.3089 3 13.9717 3 13.605V8.2L0.599737 6.87986C-0.0924171 6.49917 -0.0906776 5.50401 0.602803 5.12574L9.52115 0.261192C9.81962 0.0983862 10.1804 0.0983862 10.4789 0.261192L20.4789 5.71574C20.8001 5.89097 21 6.22769 21 6.59363V14H19V7.1L17 8.2V13.605C17 13.9717 16.7993 14.3089 16.4771 14.4839L10.4771 17.741ZM10 9.7L16.85 6L10 2.3L3.15 6L10 9.7ZM9.52485 15.4684C9.82138 15.6285 10.1786 15.6285 10.4751 15.4684L15 13.025V9.25L10.4819 11.7349C10.1818 11.9 9.81816 11.9 9.51808 11.7349L5 9.25V12.4285C5 12.796 5.20153 13.1338 5.52485 13.3084L9.52485 15.4684Z" fill="#70677B"/>
</svg>
