<svg width="12" height="13" viewBox="0 0 12 13" fill="none" xmlns="http://www.w3.org/2000/svg">
<path d="M5.05929 1.60871C5.377 0.727668 6.623 0.727667 6.94071 1.60871L7.69766 3.70783C7.83667 4.09334 8.19683 4.35501 8.60644 4.3681L10.8367 4.43933C11.7728 4.46923 12.1579 5.65425 11.4181 6.22866L9.65565 7.59723C9.33196 7.84857 9.19439 8.27197 9.30852 8.66557L9.92997 10.8087C10.1908 11.7082 9.18277 12.4406 8.40788 11.9146L6.56166 10.6613C6.22259 10.4311 5.77741 10.4311 5.43834 10.6613L3.59213 11.9146C2.81724 12.4406 1.8092 11.7082 2.07003 10.8087L2.69148 8.66557C2.80561 8.27197 2.66804 7.84857 2.34435 7.59723L0.581881 6.22866C-0.15786 5.65425 0.227175 4.46923 1.16327 4.43933L3.39356 4.3681C3.80316 4.35501 4.16333 4.09334 4.30234 3.70783L5.05929 1.60871Z" fill="#7A1DC5"/>
</svg>
