<svg width="17" height="18" viewBox="0 0 17 18" fill="none" xmlns="http://www.w3.org/2000/svg">
<path d="M2.68255 18V14.13C1.83308 13.35 1.17362 12.4388 0.704169 11.3963C0.234723 10.3538 0 9.255 0 8.1C0 5.85 0.78241 3.9375 2.34723 2.3625C3.91205 0.7875 5.81219 0 8.04765 0C9.91053 0 11.561 0.55125 12.9992 1.65375C14.4373 2.75625 15.3725 4.1925 15.8047 5.9625L16.9671 10.575C17.0416 10.86 16.9895 11.1188 16.8106 11.3513C16.6318 11.5838 16.3934 11.7 16.0953 11.7H14.3069V14.4C14.3069 14.895 14.1318 15.3188 13.7816 15.6713C13.4314 16.0238 13.0104 16.2 12.5186 16.2H10.7302V18H8.94183V14.4H12.5186V9.9H14.9329L14.0834 6.4125C13.7406 5.0475 13.0104 3.9375 11.8926 3.0825C10.7749 2.2275 9.49324 1.8 8.04765 1.8C6.31889 1.8 4.84349 2.4075 3.62144 3.6225C2.39939 4.8375 1.78837 6.315 1.78837 8.055C1.78837 8.955 1.97093 9.81 2.33605 10.62C2.70118 11.43 3.21906 12.15 3.8897 12.78L4.47092 13.32V18H2.68255ZM7.15347 11.7H8.94183L9.07596 10.575C9.19518 10.53 9.30323 10.4775 9.4001 10.4175C9.49697 10.3575 9.58266 10.29 9.65718 10.215L10.6855 10.665L11.5797 9.135L10.6855 8.46C10.7153 8.34 10.7302 8.22 10.7302 8.1C10.7302 7.98 10.7153 7.86 10.6855 7.74L11.5797 7.065L10.6855 5.535L9.65718 5.985C9.58266 5.91 9.49697 5.8425 9.4001 5.7825C9.30323 5.7225 9.19518 5.67 9.07596 5.625L8.94183 4.5H7.15347L7.01934 5.625C6.90011 5.67 6.79207 5.7225 6.6952 5.7825C6.59833 5.8425 6.51263 5.91 6.43812 5.985L5.40981 5.535L4.51562 7.065L5.40981 7.74C5.38 7.86 5.3651 7.98 5.3651 8.1C5.3651 8.22 5.38 8.34 5.40981 8.46L4.51562 9.135L5.40981 10.665L6.43812 10.215C6.51263 10.29 6.59833 10.3575 6.6952 10.4175C6.79207 10.4775 6.90011 10.53 7.01934 10.575L7.15347 11.7ZM8.04765 9.45C7.67507 9.45 7.35838 9.31875 7.09758 9.05625C6.83678 8.79375 6.70637 8.475 6.70637 8.1C6.70637 7.725 6.83678 7.40625 7.09758 7.14375C7.35838 6.88125 7.67507 6.75 8.04765 6.75C8.42023 6.75 8.73691 6.88125 8.99772 7.14375C9.25852 7.40625 9.38892 7.725 9.38892 8.1C9.38892 8.475 9.25852 8.79375 8.99772 9.05625C8.73691 9.31875 8.42023 9.45 8.04765 9.45Z" fill="#70677B"/>
</svg>
