<svg width="16" height="19" viewBox="0 0 16 19" fill="none" xmlns="http://www.w3.org/2000/svg">
<path d="M1.77778 18.5C1.28889 18.5 0.87037 18.3238 0.522222 17.9713C0.174074 17.6187 0 17.195 0 16.7V4.1C0 3.605 0.174074 3.18125 0.522222 2.82875C0.87037 2.47625 1.28889 2.3 1.77778 2.3H5.51111C5.7037 1.76 6.02593 1.325 6.47778 0.995C6.92963 0.665 7.43704 0.5 8 0.5C8.56296 0.5 9.07037 0.665 9.52222 0.995C9.97407 1.325 10.2963 1.76 10.4889 2.3H14.2222C14.7111 2.3 15.1296 2.47625 15.4778 2.82875C15.8259 3.18125 16 3.605 16 4.1V16.7C16 17.195 15.8259 17.6187 15.4778 17.9713C15.1296 18.3238 14.7111 18.5 14.2222 18.5H1.77778ZM1.77778 16.7H14.2222V4.1H1.77778V16.7ZM3.55556 14C3.55556 14.4971 3.9585 14.9 4.45556 14.9H8.87778C9.37484 14.9 9.77778 14.4971 9.77778 14C9.77778 13.5029 9.37483 13.1 8.87778 13.1H4.45555C3.9585 13.1 3.55556 13.5029 3.55556 14ZM3.55556 10.4C3.55556 10.8971 3.9585 11.3 4.45556 11.3H11.5444C12.0415 11.3 12.4444 10.8971 12.4444 10.4C12.4444 9.90294 12.0415 9.5 11.5444 9.5H4.45556C3.9585 9.5 3.55556 9.90294 3.55556 10.4ZM3.55556 6.8C3.55556 7.29706 3.9585 7.7 4.45556 7.7H11.5444C12.0415 7.7 12.4444 7.29706 12.4444 6.8C12.4444 6.30294 12.0415 5.9 11.5444 5.9H4.45556C3.9585 5.9 3.55556 6.30294 3.55556 6.8ZM8 3.425C8.19259 3.425 8.35185 3.36125 8.47778 3.23375C8.6037 3.10625 8.66667 2.945 8.66667 2.75C8.66667 2.555 8.6037 2.39375 8.47778 2.26625C8.35185 2.13875 8.19259 2.075 8 2.075C7.80741 2.075 7.64815 2.13875 7.52222 2.26625C7.3963 2.39375 7.33333 2.555 7.33333 2.75C7.33333 2.945 7.3963 3.10625 7.52222 3.23375C7.64815 3.36125 7.80741 3.425 8 3.425Z" fill="#70677B"/>
</svg>
